<?xml version="1.0" standalone="no"?>
<!DOCTYPE svg PUBLIC "-//W3C//DTD SVG 20010904//EN"
 "http://www.w3.org/TR/2001/REC-SVG-20010904/DTD/svg10.dtd">
<svg version="1.0" xmlns="http://www.w3.org/2000/svg"
 width="826.000000pt" height="826.000000pt" viewBox="0 0 826.000000 826.000000"
 preserveAspectRatio="xMidYMid meet">

<g transform="translate(0.000000,826.000000) scale(0.100000,-0.100000)"
fill="#000000" stroke="none">
<path d="M5740 7061 c-297 -64 -550 -251 -702 -521 -36 -65 -60 -123 -103
-257 -1 -2 -26 7 -56 19 -77 30 -248 30 -374 -1 -217 -53 -470 -197 -666 -379
-182 -169 -202 -272 -78 -395 45 -45 59 -65 59 -88 l0 -29 -335 0 -335 0 0
-409 0 -408 -137 -12 c-200 -17 -211 -19 -230 -48 -15 -23 -15 -32 10 -141 15
-64 27 -122 27 -128 0 -6 -15 -37 -34 -67 -105 -175 -100 -310 20 -609 l45
-112 -40 -90 c-65 -149 -137 -335 -166 -429 -24 -76 -27 -99 -22 -165 10 -134
87 -242 162 -227 93 18 252 161 520 468 99 114 182 203 186 199 9 -10 39 -286
39 -360 0 -97 -64 -504 -206 -1309 l-48 -273 -1065 0 c-585 0 -1067 -2 -1069
-5 -3 -3 1284 -4 2859 -3 1575 2 2467 4 1982 5 l-882 3 -10 53 c-27 133 -111
587 -111 601 0 14 47 16 428 18 l427 3 5 317 5 318 45 22 c83 42 107 130 74
267 -19 80 -105 261 -168 356 l-47 70 43 5 43 5 0 590 0 590 -156 3 -155 2
-42 81 c-23 44 -40 85 -36 90 3 5 93 9 200 9 l194 0 -2 588 -3 587 -272 3
-271 2 -41 75 c-23 41 -41 77 -41 80 0 3 405 5 900 5 l901 0 -6 68 c-15 158
-47 277 -110 402 -152 301 -418 502 -748 565 -108 20 -299 18 -407 -4z m397
-6 c422 -80 749 -398 834 -810 10 -49 19 -116 19 -147 l0 -58 -897 0 -898 1
-55 66 c-50 61 -128 131 -175 158 -17 10 -17 14 -1 70 28 98 110 254 182 343
154 193 386 334 621 376 105 19 273 19 370 1z m-1646 -1131 c18 -73 57 -181
83 -231 l15 -30 -42 4 c-44 5 -97 -9 -97 -26 0 -5 22 -7 53 -5 71 7 99 -13
179 -127 82 -116 149 -196 235 -275 65 -61 65 -61 54 -96 -21 -65 -75 -98
-157 -98 -31 0 -33 -3 -60 -81 -24 -68 -36 -88 -76 -123 -127 -111 -361 -213
-442 -192 -67 17 -175 154 -250 319 -42 91 -42 99 -25 447 l12 225 30 32 c17
18 99 81 181 140 83 59 178 126 211 150 33 23 64 41 69 40 6 -2 18 -34 27 -73z
m1329 -644 l0 -580 -190 0 c-223 0 -202 -21 -165 168 34 168 41 263 26 359
-26 164 -103 428 -165 567 -14 32 -26 60 -26 62 0 2 117 4 260 4 l260 0 0
-580z m-2008 55 c-2 -55 3 -89 23 -137 7 -17 -9 -18 -244 -18 l-251 0 0 -510
0 -510 65 0 c36 0 65 -3 65 -6 0 -4 -25 -53 -56 -110 -38 -72 -61 -104 -73
-104 -15 0 -28 45 -85 293 -37 160 -74 305 -82 321 -11 23 -14 108 -14 438 l0
408 327 -2 327 -3 -2 -60z m79 -207 c32 -28 49 -51 49 -66 0 -28 41 -127 85
-207 l34 -60 5 -197 5 -197 -67 -15 c-37 -8 -128 -20 -202 -26 -74 -7 -151
-18 -170 -26 -46 -20 -85 -58 -118 -116 l-27 -48 -67 0 -68 0 0 500 0 500 246
0 245 0 50 -42z m1193 -305 c2 -10 14 -67 26 -128 12 -60 35 -168 52 -240 32
-139 33 -175 6 -363 -11 -72 -10 -88 5 -127 29 -81 89 -157 261 -333 92 -95
166 -175 165 -176 -28 -22 -314 -165 -319 -159 -3 4 -26 51 -50 103 -146 322
-195 417 -235 461 -70 75 -134 168 -146 212 -9 32 -9 66 0 143 l13 101 -61
115 c-58 110 -72 148 -52 148 5 0 44 -47 87 -105 44 -58 80 -102 82 -97 1 4
-23 75 -54 157 -95 252 -85 286 27 88 39 -71 73 -130 75 -132 15 -16 7 22 -27
143 -42 150 -48 196 -24 196 22 0 38 -33 91 -189 27 -78 50 -138 52 -132 2 7
-1 48 -7 93 -12 90 -15 221 -4 231 12 13 32 7 37 -10z m-409 -199 c-14 -103
-29 -193 -33 -200 -4 -6 -74 -85 -157 -174 -135 -147 -180 -188 -190 -178 -23
22 -34 357 -17 492 l7 59 55 14 c70 17 217 90 295 146 33 24 61 40 63 36 2 -4
-9 -92 -23 -195z m570 66 c3 -5 -2 -35 -11 -67 -10 -32 -20 -110 -23 -173 l-6
-115 -21 84 c-16 66 -19 96 -12 140 15 105 50 168 73 131z m575 -776 l0 -574
-40 0 -40 0 -60 126 -60 126 63 147 c60 140 62 149 61 226 -1 101 -37 205
-134 392 -38 72 -67 133 -65 135 2 1 64 2 139 0 l136 -3 0 -575z m-1562 393
c2 -142 19 -248 40 -255 18 -6 351 339 363 377 4 10 21 6 68 -16 l64 -28 -288
-270 c-158 -149 -291 -271 -295 -273 -4 -1 -10 30 -14 70 -12 143 -26 364 -26
435 0 69 1 72 28 81 58 22 57 23 60 -121z m-1228 86 c0 -33 -23 -72 -100 -173
-42 -55 -67 -99 -89 -163 -17 -49 -31 -97 -31 -108 0 -13 36 25 99 104 55 69
110 132 123 141 53 38 148 44 148 11 0 -9 -21 -30 -47 -48 -83 -57 -112 -87
-188 -198 -41 -59 -75 -111 -75 -115 0 -4 36 30 80 75 89 91 155 129 236 133
44 3 49 1 52 -19 2 -14 -4 -26 -17 -32 -57 -31 -184 -138 -230 -193 l-51 -63
142 -6 c159 -7 188 -13 188 -39 0 -20 -10 -23 -180 -42 -63 -7 -101 -14 -84
-16 24 -2 34 -11 47 -38 23 -47 22 -54 -14 -104 l-31 -42 23 -159 c25 -181 26
-176 -56 -225 -76 -44 -159 -41 -228 10 -37 27 -35 34 48 231 36 85 65 159 65
165 0 6 -18 53 -40 106 -94 226 -117 364 -78 478 36 107 80 177 168 268 89 93
120 108 120 61z m1127 -79 c3 -104 33 -497 38 -502 3 -4 397 361 556 515 l56
55 22 -35 c19 -30 20 -40 11 -87 -13 -68 -13 -155 0 -202 11 -40 78 -135 145
-207 29 -32 63 -91 109 -190 36 -79 66 -148 66 -153 0 -6 -51 -100 -114 -211
-62 -111 -141 -255 -176 -321 -61 -115 -62 -120 -57 -175 10 -92 199 -1147
252 -1408 8 -40 15 -79 15 -88 0 -13 -95 -15 -895 -15 -492 0 -895 2 -895 4 0
2 29 168 65 368 103 582 163 956 188 1173 3 22 -6 139 -20 260 -38 330 -27
400 107 685 38 80 71 156 75 170 12 41 -9 11 -35 -50 -12 -30 -45 -99 -71
-153 -76 -151 -100 -233 -106 -367 l-6 -115 -140 -160 c-297 -341 -343 -387
-481 -482 -68 -48 -109 -54 -147 -24 -53 42 -95 174 -83 261 8 61 64 230 76
230 5 0 26 -12 45 -27 33 -25 45 -28 114 -28 73 0 80 2 131 37 l53 38 15 -89
c8 -49 18 -93 23 -97 11 -11 10 -2 -24 216 l-31 201 55 82 c30 45 72 115 93
156 25 46 48 78 64 85 14 6 28 16 32 22 4 6 21 17 38 24 38 16 46 47 31 113
l-11 50 86 161 c159 296 153 291 377 312 84 8 193 25 242 38 50 13 95 23 100
22 6 -2 11 -42 12 -92z m1141 -168 c92 -87 138 -163 241 -402 32 -76 85 -193
115 -259 l57 -120 -93 100 c-51 55 -156 165 -233 245 -146 151 -203 235 -207
301 -1 19 4 73 11 121 13 85 14 87 34 76 12 -6 46 -34 75 -62z m-2423 -116
c-3 -6 -10 -10 -16 -10 -10 0 -12 33 -2 44 9 9 26 -22 18 -34z m-33 -42 c-7
-7 -12 -8 -12 -2 0 6 3 14 7 17 3 4 9 5 12 2 2 -3 -1 -11 -7 -17z m508 -67 c0
-6 -4 -13 -10 -16 -5 -3 -10 1 -10 9 0 9 5 16 10 16 6 0 10 -4 10 -9z m-140
-267 c0 -12 -103 -190 -139 -238 l-36 -50 -7 43 c-6 37 -4 47 22 83 33 45 37
79 15 121 -18 36 -24 34 123 45 12 1 22 -1 22 -4z m2470 -286 c163 -192 282
-435 283 -582 1 -97 -38 -147 -130 -167 -94 -21 -181 10 -276 100 -61 57 -95
113 -126 208 -16 48 -54 147 -85 218 -30 72 -52 131 -48 133 4 1 72 38 152 81
80 44 150 80 156 80 7 1 40 -32 74 -71z m-205 -577 c3 -11 37 -48 74 -84 77
-72 151 -107 226 -107 l45 0 0 -315 0 -315 -419 0 c-252 0 -422 4 -426 9 -13
21 -75 390 -75 447 l0 61 63 13 c149 29 298 112 421 236 39 39 74 72 78 73 4
0 9 -8 13 -18z"/>
<path d="M4121 5682 c-42 -23 -72 -62 -48 -62 9 0 19 5 23 11 3 6 27 20 51 31
42 19 58 19 116 2 22 -7 23 21 1 30 -32 12 -110 6 -143 -12z"/>
<path d="M4143 5555 c-17 -7 -34 -18 -37 -24 -10 -15 5 -13 28 4 26 20 55 19
78 -2 10 -9 18 -11 18 -6 0 29 -48 44 -87 28z"/>
<path d="M4509 5520 l-24 -19 33 12 c31 11 35 10 53 -12 11 -13 22 -22 24 -19
8 8 -35 58 -50 58 -7 0 -23 -9 -36 -20z"/>
<path d="M4141 5441 c-14 -26 -14 -54 1 -69 9 -9 2 -12 -32 -13 l-45 -1 47 -8
c26 -5 52 -11 57 -15 6 -3 11 -1 11 4 0 6 -5 11 -12 11 -9 0 -9 3 0 12 17 17
15 73 -2 87 -12 10 -17 8 -25 -8z"/>
<path d="M4251 5348 c-36 -108 -38 -133 -12 -148 24 -12 88 -13 95 -1 4 5 -10
7 -31 4 -25 -3 -45 1 -58 10 -20 15 -19 16 13 117 19 56 32 104 29 106 -3 3
-19 -37 -36 -88z"/>
<path d="M4500 5389 c-7 -11 -9 -32 -5 -46 3 -15 1 -29 -5 -33 -6 -4 18 -6 53
-6 36 1 63 4 60 9 -2 4 -18 7 -35 7 -26 0 -30 3 -25 21 7 25 -8 69 -22 69 -6
0 -15 -9 -21 -21z"/>
<path d="M4240 5055 c-30 -36 -7 -95 36 -95 55 0 57 102 3 108 -14 2 -31 -4
-39 -13z"/>
<path d="M2986 6380 c-115 -37 -200 -113 -254 -227 -24 -52 -27 -69 -27 -169
0 -105 1 -113 34 -177 104 -205 338 -287 550 -192 l58 26 67 -30 c36 -16 66
-26 66 -21 0 5 -11 35 -25 67 l-26 59 35 58 c111 184 54 442 -124 556 -106 68
-239 87 -354 50z m165 -100 c23 -13 24 -40 4 -244 -10 -106 -19 -154 -30 -165
-31 -31 -44 5 -60 159 -20 196 -19 236 3 249 22 13 58 14 83 1z m-3 -496 c44
-31 16 -104 -40 -104 -24 0 -58 35 -58 60 0 25 34 60 58 60 10 0 28 -7 40 -16z"/>
<path d="M1450 5590 l0 -740 600 0 600 0 0 740 0 740 -600 0 -600 0 0 -740z
m1188 3 l-3 -728 -587 -3 -588 -2 0 730 0 730 590 0 590 0 -2 -727z"/>
<path d="M1632 5593 l3 -508 413 -3 412 -2 0 510 0 510 -415 0 -415 0 2 -507z
m816 0 l-3 -498 -397 -3 -398 -2 0 500 0 500 400 0 400 0 -2 -497z"/>
<path d="M6060 5280 l0 -590 475 0 475 0 0 590 0 590 -475 0 -475 0 0 -590z
m930 0 l0 -580 -460 0 -460 0 0 580 0 580 460 0 460 0 0 -580z"/>
<path d="M6060 3915 l0 -595 473 2 472 3 0 590 0 590 -472 3 -473 2 0 -595z
m930 5 l0 -580 -460 0 -460 0 0 575 0 574 138 4 c75 1 282 4 460 5 l322 2 0
-580z"/>
<path d="M2445 4030 c3 -5 8 -10 11 -10 2 0 4 5 4 10 0 6 -5 10 -11 10 -5 0
-7 -4 -4 -10z"/>
<path d="M2539 3983 l-24 -28 28 24 c25 23 32 31 24 31 -2 0 -14 -12 -28 -27z"/>
<path d="M2485 3940 c-14 -16 -20 -17 -27 -8 -5 9 -8 5 -8 -11 l0 -25 30 29
c17 16 30 30 30 32 0 7 -8 2 -25 -17z"/>
<path d="M2155 3690 c10 -11 20 -20 23 -20 3 0 -3 9 -13 20 -10 11 -20 20 -23
20 -3 0 3 -9 13 -20z"/>
<path d="M2195 3640 c10 -11 20 -20 23 -20 3 0 -3 9 -13 20 -10 11 -20 20 -23
20 -3 0 3 -9 13 -20z"/>
<path d="M2299 3495 c17 -33 31 -51 31 -40 0 6 -10 21 -21 35 -13 17 -17 18
-10 5z"/>
<path d="M2424 3408 l-19 -23 23 19 c21 18 27 26 19 26 -2 0 -12 -10 -23 -22z"/>
<path d="M2369 3363 l-24 -28 28 24 c25 23 32 31 24 31 -2 0 -14 -12 -28 -27z"/>
<path d="M2314 3318 l-19 -23 23 19 c21 18 27 26 19 26 -2 0 -12 -10 -23 -22z"/>
<path d="M2281 3294 c0 -11 3 -14 6 -6 3 7 2 16 -1 19 -3 4 -6 -2 -5 -13z"/>
<path d="M2271 3234 c0 -11 3 -14 6 -6 3 7 2 16 -1 19 -3 4 -6 -2 -5 -13z"/>
<path d="M6060 2550 l0 -590 473 2 472 3 3 588 2 587 -475 0 -475 0 0 -590z
m930 0 l0 -580 -460 0 -460 0 0 580 0 580 460 0 460 0 0 -580z"/>
<path d="M1796 2975 c-3 -9 -6 -22 -5 -28 0 -7 5 -1 10 12 5 13 8 26 5 28 -2
2 -6 -3 -10 -12z"/>
<path d="M2544 2888 l-19 -23 23 19 c12 11 22 21 22 23 0 8 -8 2 -26 -19z"/>
<path d="M2509 2843 c-29 -35 -41 -53 -36 -53 2 0 17 16 31 35 28 36 31 49 5
18z"/>
<path d="M2170 2786 c0 -2 8 -10 18 -17 15 -13 16 -12 3 4 -13 16 -21 21 -21
13z"/>
<path d="M2224 2717 c16 -20 30 -37 33 -37 7 0 -36 58 -49 66 -7 4 1 -9 16
-29z"/>
<path d="M2430 2730 c-6 -11 -8 -20 -6 -20 3 0 10 9 16 20 6 11 8 20 6 20 -3
0 -10 -9 -16 -20z"/>
<path d="M2362 2700 c0 -14 2 -19 5 -12 2 6 2 18 0 25 -3 6 -5 1 -5 -13z"/>
<path d="M1920 2696 c0 -2 8 -10 18 -17 15 -13 16 -12 3 4 -13 16 -21 21 -21
13z"/>
<path d="M2391 2664 c-12 -20 -21 -40 -19 -44 2 -4 13 12 26 36 27 53 22 58
-7 8z"/>
<path d="M1965 2636 c10 -14 19 -26 22 -26 7 0 -17 39 -28 46 -6 3 -3 -5 6
-20z"/>
<path d="M2290 2620 c6 -11 13 -20 16 -20 2 0 0 9 -6 20 -6 11 -13 20 -16 20
-2 0 0 -9 6 -20z"/>
<path d="M2000 2580 c6 -11 13 -20 16 -20 2 0 0 9 -6 20 -6 11 -13 20 -16 20
-2 0 0 -9 6 -20z"/>
<path d="M2337 2538 c21 -47 33 -49 32 -5 -1 30 -1 31 -9 7 -4 -14 -8 -20 -9
-14 -1 5 -8 19 -16 30 -12 15 -12 11 2 -18z"/>
<path d="M2020 2545 c0 -5 5 -17 10 -25 5 -8 10 -10 10 -5 0 6 -5 17 -10 25
-5 8 -10 11 -10 5z"/>
<path d="M2351 2444 c0 -11 3 -14 6 -6 3 7 2 16 -1 19 -3 4 -6 -2 -5 -13z"/>
<path d="M2459 2283 c-13 -16 -12 -17 4 -4 9 7 17 15 17 17 0 8 -8 3 -21 -13z"/>
<path d="M1921 2247 c2 -1 13 -9 24 -17 19 -14 19 -14 6 3 -7 9 -18 17 -24 17
-6 0 -8 -1 -6 -3z"/>
<path d="M2413 2218 c-15 -20 -25 -38 -20 -38 3 0 12 11 21 25 17 26 16 35 -1
13z"/>
<path d="M1985 2200 c10 -11 20 -20 23 -20 3 0 -3 9 -13 20 -10 11 -20 20 -23
20 -3 0 3 -9 13 -20z"/>
<path d="M2055 2139 c22 -25 41 -45 43 -44 8 5 -14 34 -46 60 l-37 30 40 -46z"/>
<path d="M2291 2154 c0 -11 3 -14 6 -6 3 7 2 16 -1 19 -3 4 -6 -2 -5 -13z"/>
<path d="M2354 2119 c-14 -28 -24 -53 -22 -55 2 -2 16 21 31 51 15 30 25 55
22 55 -3 0 -16 -23 -31 -51z"/>
<path d="M2283 2045 c0 -33 2 -45 4 -27 2 18 2 45 0 60 -2 15 -4 0 -4 -33z"/>
<path d="M2107 2062 c1 -8 3 -16 3 -18 0 -3 5 -2 10 1 6 3 10 11 10 16 0 6 -4
8 -9 5 -5 -4 -11 -3 -14 1 -2 5 -2 2 0 -5z"/>
<path d="M2095 1880 c10 -11 20 -20 23 -20 3 0 -3 9 -13 20 -10 11 -20 20 -23
20 -3 0 3 -9 13 -20z"/>
<path d="M2171 1815 c19 -22 48 -55 62 -73 15 -19 27 -29 27 -23 0 5 -28 38
-62 73 -35 35 -47 46 -27 23z"/>
<path d="M2476 1815 c-9 -26 -7 -32 5 -12 6 10 9 21 6 23 -2 3 -7 -2 -11 -11z"/>
<path d="M2364 1748 l-29 -33 33 29 c17 17 32 31 32 33 0 8 -8 1 -36 -29z"/>
<path d="M2285 1670 c-16 -16 -27 -31 -24 -33 2 -2 17 11 32 30 36 41 31 43
-8 3z"/>
<path d="M2422 1660 c0 -14 2 -19 5 -12 2 6 2 18 0 25 -3 6 -5 1 -5 -13z"/>
<path d="M2110 1656 c0 -2 8 -10 18 -17 15 -13 16 -12 3 4 -13 16 -21 21 -21
13z"/>
<path d="M2155 1600 c10 -11 20 -20 23 -20 3 0 -3 9 -13 20 -10 11 -20 20 -23
20 -3 0 3 -9 13 -20z"/>
<path d="M2411 1590 c0 -8 4 -24 9 -35 5 -13 9 -14 9 -5 0 8 -4 24 -9 35 -5
13 -9 14 -9 5z"/>
<path d="M2200 1543 c13 -18 25 -33 27 -33 8 0 -17 38 -33 51 -11 9 -9 2 6
-18z"/>
<path d="M2242 1465 c0 -16 2 -22 5 -12 2 9 2 23 0 30 -3 6 -5 -1 -5 -18z"/>
<path d="M7068 1283 c23 -2 61 -2 85 0 23 2 4 4 -43 4 -47 0 -66 -2 -42 -4z"/>
</g>
</svg>
